<svg width="1172" height="68" viewBox="0 0 1172 68" fill="none" xmlns="http://www.w3.org/2000/svg">
<mask id="mask0_3_515" style="mask-type:luminance" maskUnits="userSpaceOnUse" x="198" y="6" width="56" height="56">
<path d="M226.164 61.5828C241.392 61.5828 253.736 49.2385 253.736 34.0111C253.736 18.7837 241.392 6.4394 226.164 6.4394C210.937 6.4394 198.593 18.7837 198.593 34.0111C198.593 49.2385 210.937 61.5828 226.164 61.5828Z" fill="white"/>
</mask>
<g mask="url(#mask0_3_515)">
<path d="M213.095 43.859L214.814 45.7985L206.111 53.8127L204.089 51.5305L213.095 43.859Z" fill="white"/>
<path d="M211.117 40.4445L212.323 42.7399L201.956 48.4395L200.538 45.7382L211.117 40.4445Z" fill="white"/>
<path d="M210.015 36.6565L210.636 39.174L199.206 42.2267L198.476 39.2652L210.015 36.6565Z" fill="white"/>
<path d="M209.851 32.7142V35.3066L198.023 35.536V32.4862L209.851 32.7142Z" fill="white"/>
<path d="M210.636 28.8482L210.015 31.3657L198.476 28.7571L199.206 25.7955L210.636 28.8482Z" fill="white"/>
<path d="M212.323 25.2822L211.117 27.5777L200.538 22.2839L201.956 19.5826L212.323 25.2822Z" fill="white"/>
<path d="M214.814 22.2222L213.095 24.1632L204.089 16.4917L206.113 14.208L214.814 22.2222Z" fill="white"/>
<path d="M217.965 19.8488L215.831 21.3223L208.924 11.717L211.434 9.98477L217.965 19.8488Z" fill="white"/>
<path d="M221.592 18.2974L219.168 19.2165L214.761 8.23926L217.612 7.15697L221.592 18.2974Z" fill="white"/>
<path d="M225.485 17.6607L222.912 17.9724L221.259 6.25851L224.286 5.89089L225.485 17.6607Z" fill="white"/>
<path d="M229.418 17.9724L226.845 17.6607L228.043 5.89089L231.071 6.25851L229.418 17.9724Z" fill="white"/>
<path d="M233.162 19.2165L230.737 18.2974L234.718 7.15697L237.569 8.23926L233.162 19.2165Z" fill="white"/>
<path d="M236.499 21.3223L234.365 19.8488L240.896 9.98478L243.406 11.717L236.499 21.3223Z" fill="white"/>
<path d="M239.235 24.1632L237.516 22.2236L246.217 14.208L248.241 16.4917L239.235 24.1632Z" fill="white"/>
<path d="M241.212 27.5777L240.007 25.2822L250.374 19.5826L251.792 22.2839L241.212 27.5777Z" fill="white"/>
<path d="M242.315 31.3657L241.694 28.8482L253.124 25.7955L253.854 28.7571L242.315 31.3657Z" fill="white"/>
<path d="M242.478 35.3065V32.7155L254.306 32.4861V35.5359L242.478 35.3065Z" fill="white"/>
<path d="M241.694 39.174L242.315 36.6565L253.854 39.2652L253.124 42.2267L241.694 39.174Z" fill="white"/>
<path d="M240.007 42.7399L241.212 40.4445L251.792 45.7382L250.374 48.4395L240.007 42.7399Z" fill="white"/>
<path d="M237.516 45.7985L239.235 43.859L248.241 51.5305L246.217 53.8142L237.516 45.7985Z" fill="white"/>
<path d="M234.365 48.1734L236.499 46.7L243.406 56.3052L240.896 58.0375L234.365 48.1734Z" fill="white"/>
<path d="M230.737 49.7248L233.162 48.8043L237.569 59.783L234.718 60.8652L230.737 49.7248Z" fill="white"/>
<path d="M226.844 50.3615L229.417 50.0497L231.07 61.7637L228.042 62.1313L226.844 50.3615Z" fill="white"/>
<path d="M222.912 50.0497L225.485 50.3615L224.286 62.1313L221.259 61.7637L222.912 50.0497Z" fill="white"/>
<path d="M219.168 48.8043L221.592 49.7248L217.612 60.8638L214.761 59.7829L219.168 48.8043Z" fill="white"/>
<path d="M215.831 46.7L217.965 48.1734L211.433 58.0375L208.923 56.3052L215.831 46.7Z" fill="white"/>
</g>
<path d="M1171.1 27.3101H5.14221V29.957H1171.1V27.3101Z" fill="#000066"/>
<path d="M1171.1 29.9569H5.14221V32.6038H1171.1V29.9569Z" fill="#333399"/>
<path d="M1171.1 32.6038H5.14221V35.2507H1171.1V32.6038Z" fill="#F7FF55"/>
<path d="M1171.1 35.2508H5.14221V37.8977H1171.1V35.2508Z" fill="#FF9900"/>
<path d="M1171.1 37.8976H5.14221V40.5445H1171.1V37.8976Z" fill="#FF6633"/>
<path d="M67.2498 58.6315V9.22305C67.2498 8.24811 68.0395 7.45846 69.0144 7.45846H81.0518V60.3961H69.0144C68.0395 60.3961 67.2498 59.6065 67.2498 58.6315Z" fill="white"/>
<path d="M171.184 52.7054C168.267 55.1685 164.432 56.3993 159.677 56.3993C155.535 56.3993 152.074 55.4508 149.291 53.5509C146.509 51.6511 144.427 49.0233 143.042 45.6647C141.657 42.3076 140.977 38.4226 141.002 34.0111C141.051 29.5996 141.767 25.7102 143.152 22.3398C144.537 18.9694 146.602 16.3417 149.347 14.4536C152.091 12.5669 155.535 11.6229 159.677 11.6229C164.432 11.6229 168.267 12.8493 171.184 15.2991C173.062 16.8784 174.569 18.8165 175.706 21.1178L180.603 18.2915C179.126 15.5006 177.176 13.1242 174.75 11.1641C170.853 8.01429 165.829 6.43939 159.677 6.43939C154.407 6.43939 149.959 7.6099 146.333 9.95092C142.705 12.2919 139.96 15.5329 138.098 19.6738C136.235 23.8162 135.304 28.5953 135.304 34.0111C135.304 39.4269 136.235 44.2075 138.098 48.3484C139.96 52.4907 142.705 55.7317 146.333 58.0727C149.959 60.4137 154.407 61.5828 159.677 61.5828C165.829 61.5828 170.853 60.0093 174.75 56.8596C177.176 54.8994 179.126 52.5231 180.603 49.7306L175.698 46.8999C174.563 49.188 173.059 51.1217 171.184 52.7054Z" fill="white"/>
<path d="M109.828 61.5828C106.028 61.5828 102.605 60.927 99.5521 59.6153C96.5008 58.3051 93.9878 56.4302 92.0159 53.9907C90.0425 51.5526 88.7631 48.6543 88.1749 45.2971L96.1891 44.084C96.9979 47.3191 98.6889 49.8365 101.262 51.6394C103.836 53.4407 106.837 54.3421 110.269 54.3421C112.401 54.3421 114.361 54.0054 116.151 53.3304C117.939 52.6569 119.38 51.6893 120.471 50.4262C121.561 49.1645 122.106 47.6499 122.106 45.8853C122.106 44.9295 121.942 44.084 121.609 43.3487C121.277 42.6135 120.824 41.9694 120.249 41.4194C119.673 40.868 118.974 40.3901 118.154 39.9857C117.332 39.5813 116.432 39.2328 115.451 38.9387L101.886 34.9316C100.562 34.5405 99.2139 34.0317 97.8419 33.4053C96.4685 32.7803 95.2127 31.9598 94.0745 30.9422C92.9349 29.9261 92.01 28.6629 91.2983 27.1557C90.5865 25.6484 90.2321 23.8162 90.2321 21.659C90.2321 18.4004 91.0718 15.6359 92.7496 13.3684C94.4275 11.1024 96.7023 9.38629 99.5698 8.22166C102.437 7.0585 105.647 6.47472 109.201 6.47472C112.779 6.52472 115.983 7.16144 118.816 8.38636C121.646 9.61275 123.999 11.37 125.874 13.6625C127.749 15.955 129.041 18.7298 129.753 21.9884L121.518 23.3854C121.151 21.4002 120.365 19.6915 119.166 18.2563C117.964 16.8226 116.494 15.7197 114.754 14.9477C113.013 14.1757 111.126 13.7772 109.093 13.7536C107.131 13.7051 105.337 13.9992 103.708 14.6359C102.077 15.2741 100.778 16.1682 99.8109 17.3196C98.8419 18.4724 98.3581 19.7959 98.3581 21.2899C98.3581 22.7839 98.786 23.95 99.6447 24.8558C100.502 25.7631 101.562 26.4793 102.824 27.0057C104.086 27.5336 105.341 27.9674 106.591 28.3115L116.37 31.0687C117.595 31.4128 118.986 31.8716 120.543 32.448C122.099 33.0244 123.606 33.8273 125.065 34.8566C126.522 35.886 127.73 37.2521 128.685 38.9564C129.641 40.6607 130.119 42.7973 130.119 45.3707C130.119 47.944 129.58 50.388 128.502 52.4114C127.422 54.4333 125.946 56.1243 124.073 57.4846C122.199 58.8448 120.035 59.8682 117.585 60.5549C115.133 61.2402 112.548 61.5843 109.828 61.5843V61.5828Z" fill="white"/>
<path d="M5.14221 10.9378C5.14221 9.06288 6.66123 7.5424 8.5361 7.5424H18.2855C18.7384 7.5424 19.1663 7.75562 19.4368 8.11883C19.7192 8.49527 20.2309 8.61144 20.6485 8.39381C20.9309 8.24676 21.2147 8.10412 21.5029 7.96737C22.1087 7.67768 22.7043 7.5424 23.3748 7.5424H33.9432C48.5246 7.5424 60.3459 19.3637 60.3459 33.945C60.3459 48.5264 48.5246 60.3477 33.9432 60.3477H23.3748C22.7028 60.3477 22.1073 60.2124 21.5029 59.9227C21.2161 59.786 20.9309 59.6433 20.6485 59.4963C20.2324 59.2801 19.7192 59.3963 19.4368 59.7713C19.1648 60.1345 18.7384 60.3477 18.2855 60.3477H8.5361C6.66123 60.3477 5.14221 58.8287 5.14221 56.9538V10.9378Z" fill="white"/>
<path d="M50.9176 50.9176C60.2913 41.544 60.2913 26.3462 50.9176 16.9725C41.544 7.59885 26.3462 7.59886 16.9725 16.9725C7.59887 26.3462 7.59887 41.544 16.9725 50.9176C26.3462 60.2913 41.544 60.2913 50.9176 50.9176Z" fill="white"/>
<path d="M7.11414 9.83781C6.96562 9.9231 6.87445 10.0819 6.87445 10.254V11.62C6.87445 11.7921 6.96562 11.9494 7.11414 12.0362C7.50823 12.2641 7.90232 12.492 8.29641 12.7185C8.44493 12.8038 8.62727 12.8038 8.77579 12.7185C9.16989 12.4906 9.56398 12.2627 9.95807 12.0362C10.1066 11.9509 10.1978 11.7921 10.1978 11.62V10.254C10.1978 10.0819 10.1066 9.92457 9.95807 9.83781C9.56398 9.60989 9.16989 9.38196 8.77579 9.15551C8.62727 9.07022 8.44493 9.07022 8.29641 9.15551C7.90232 9.38343 7.50823 9.61136 7.11414 9.83781Z" fill="white"/>
</svg>
